<?xml version="1.0" encoding="utf-8"?>
<!-- Svg Vector Icons : http://www.onlinewebfonts.com/icon -->
<!DOCTYPE svg PUBLIC "-//W3C//DTD SVG 1.1//EN" "http://www.w3.org/Graphics/SVG/1.1/DTD/svg11.dtd">
<svg version="1.1" xmlns="http://www.w3.org/2000/svg" xmlns:xlink="http://www.w3.org/1999/xlink" x="0px" y="0px" viewBox="0 0 1000 1000" enable-background="new 0 0 1000 1000" xml:space="preserve">
<metadata> Svg Vector Icons : http://www.onlinewebfonts.com/icon </metadata>
<g><g transform="translate(0.000000,511.000000) scale(0.100000,-0.100000)"><path d="M100,2770.5V1028.8h1732.2h1732.2V177v-851.8H2396.9H1229.3l3.8-1803l5.7-1805l1161.8-5.7l1163.7-3.8l3.8,826.9l5.7,828.8h1426h1426l5.7-828.8l3.8-826.9l1163.8,3.8l1161.8,5.7l5.7,1805l3.8,1803H7603.1H6435.5V177v851.8h1732.2H9900v1741.8v1741.8H8167.8H6435.5V2923.7V1335H5000H3564.5v1588.7v1588.7H1832.2H100V2770.5z"/></g></g>
</svg>